# xmcd CD database file
#
# Track frame offsets:
#	150
#	10500
#	27646
#	41129
#	54509
#	72020
#	93416
#	107092
#	119996
#	136354
#	151488
#	166516
#
# Disc length: 2375 seconds
#
# Revision: 0
# Processed by: cddbd v1.5.2PL0 Copyright (c) Steve Scherf et al.
# Submitted via: jetAudio 7
#
DISCID=9d09450c
DTITLE=John Williamson - The Big Red
DYEAR=1900
DGENRE=Country
TTITLE0=Kissing on a City Corner
TTITLE1=The Big Red
TTITLE2=Marree Girl
TTITLE3=Prairie Hotel Parachilna
TTITLE4=Rescue Me
TTITLE5=Hang My Hat In Queensland
TTITLE6=Look Out Cunnamulla
TTITLE7=Mates Around the Fire
TTITLE8=The Weight of a Man
TTITLE9=I'm a Basher
TTITLE10=Movie Star
TTITLE11=The Men of League
EXTD=
EXTT0=
EXTT1=
EXTT2=
EXTT3=
EXTT4=
EXTT5=
EXTT6=
EXTT7=
EXTT8=
EXTT9=
EXTT10=
EXTT11=
PLAYORDER=
